<?xml version="1.0" encoding="utf-8"?>
<!-- Generator: Adobe Illustrator 17.0.0, SVG Export Plug-In . SVG Version: 6.00 Build 0)  -->
<!DOCTYPE svg PUBLIC "-//W3C//DTD SVG 1.1//EN" "http://www.w3.org/Graphics/SVG/1.1/DTD/svg11.dtd">
<svg version="1.1" id="图层_1" xmlns="http://www.w3.org/2000/svg" xmlns:xlink="http://www.w3.org/1999/xlink" x="0px" y="0px"
	 width="280px" height="84px" viewBox="0 0 280 84" enable-background="new 0 0 280 84" xml:space="preserve">
<g>
	<g>
		<path fill="#534641" d="M173.671,53.668c-0.605-2.109-15.223-51.664-36.963-51.664c-13.332,0-24.084,19.918-34.488,39.169
			c-2.039,3.767-4.085,7.557-6.14,11.174h-42.01c-0.474-0.862-0.95-1.731-1.424-2.593c-7.228-13.093-14.03-25.453-24.608-25.453
			c-15.31,0-23.085,28.201-23.404,29.403L3.999,56.11h47.814c6.484,11.533,13.508,22.153,23.725,22.153
			c8.242,0,15.517-9.654,22.773-22.153h76.063L173.671,53.668z M9.002,52.347c2.73-8.513,9.721-24.237,19.037-24.237
			c8.325,0,14.905,11.94,21.265,23.478c0.147,0.251,0.274,0.505,0.415,0.759H9.002z M75.537,74.453
			c-7.66,0-13.712-8.54-19.349-18.343h37.701C87.728,66.442,81.537,74.453,75.537,74.453z M100.457,52.347
			c1.686-3.032,3.388-6.178,5.104-9.359c9.419-17.421,20.08-37.167,31.148-37.167c14.814,0,27.871,31.537,32.588,46.526H100.457z
			 M132.782,61.895c-0.134-0.044-0.311-0.074-0.531-0.101c-0.197-0.024-0.48-0.041-0.806-0.041c-0.342,0-0.61,0.017-0.846,0.041
			c-0.23,0.027-0.395,0.057-0.535,0.101c-0.13,0.05-0.224,0.108-0.271,0.169c-0.05,0.08-0.076,0.159-0.076,0.241v10.281
			c0,0.602-0.08,1.138-0.247,1.607c-0.165,0.468-0.393,0.87-0.694,1.191c-0.294,0.312-0.66,0.558-1.093,0.728
			c-0.438,0.165-0.916,0.249-1.469,0.249c-0.53,0-1.012-0.079-1.455-0.243c-0.426-0.159-0.797-0.406-1.115-0.733
			c-0.309-0.321-0.553-0.742-0.712-1.227c-0.17-0.502-0.257-1.094-0.257-1.764V62.305c0-0.082-0.035-0.161-0.09-0.241
			c-0.057-0.061-0.15-0.119-0.275-0.169c-0.141-0.044-0.312-0.074-0.526-0.101c-0.233-0.024-0.496-0.041-0.842-0.041
			c-0.338,0-0.624,0.017-0.836,0.041c-0.216,0.027-0.407,0.057-0.531,0.101c-0.137,0.05-0.232,0.108-0.286,0.169
			c-0.055,0.08-0.085,0.159-0.085,0.241v10.387c0,1.091,0.157,2.046,0.469,2.862c0.312,0.809,0.766,1.49,1.347,2.04
			c0.597,0.542,1.317,0.943,2.168,1.214c0.848,0.27,1.806,0.406,2.884,0.406c1.15,0,2.16-0.153,3.032-0.45
			c0.875-0.304,1.614-0.737,2.204-1.309c0.612-0.565,1.066-1.268,1.37-2.092c0.3-0.827,0.459-1.77,0.459-2.813V62.305
			c0-0.082-0.031-0.161-0.081-0.241C133.012,62.003,132.917,61.945,132.782,61.895z M151.281,61.926
			c-0.107-0.054-0.263-0.093-0.468-0.113c-0.198-0.02-0.457-0.037-0.752-0.037c-0.318,0-0.578,0.017-0.777,0.037
			c-0.205,0.02-0.36,0.059-0.493,0.113c-0.113,0.048-0.198,0.107-0.258,0.181c-0.058,0.073-0.073,0.154-0.073,0.237v8.014
			c0,0.609,0.004,1.243,0.012,1.913c0.002,0.673,0.035,1.313,0.061,1.924h-0.012c-0.155-0.345-0.319-0.703-0.49-1.053
			c-0.168-0.353-0.344-0.707-0.511-1.078c-0.174-0.359-0.363-0.732-0.549-1.093c-0.191-0.367-0.381-0.737-0.574-1.115l-3.325-6.242
			c-0.163-0.342-0.322-0.629-0.479-0.862c-0.163-0.236-0.33-0.413-0.516-0.549c-0.166-0.138-0.383-0.228-0.61-0.288
			c-0.226-0.048-0.503-0.081-0.837-0.081h-1.856c-0.36,0-0.661,0.102-0.906,0.311c-0.234,0.2-0.35,0.519-0.35,0.927V78.42
			c0,0.089,0.026,0.169,0.069,0.241c0.036,0.064,0.116,0.125,0.234,0.178c0.11,0.045,0.266,0.083,0.48,0.114
			c0.191,0.026,0.451,0.035,0.751,0.035c0.322,0,0.576-0.009,0.782-0.035c0.205-0.031,0.36-0.069,0.488-0.114
			c0.109-0.053,0.194-0.114,0.244-0.178c0.052-0.073,0.08-0.153,0.08-0.241v-8.932c0-0.669-0.011-1.319-0.04-1.95
			c-0.012-0.631-0.036-1.256-0.075-1.893h0.035c0.195,0.518,0.419,1.055,0.683,1.606c0.252,0.554,0.506,1.06,0.748,1.533l4.247,7.99
			c0.211,0.437,0.409,0.797,0.583,1.071c0.177,0.28,0.37,0.498,0.554,0.664c0.19,0.162,0.393,0.273,0.615,0.335
			c0.225,0.063,0.491,0.093,0.796,0.093h1.478c0.169,0,0.336-0.021,0.499-0.076c0.165-0.048,0.302-0.119,0.423-0.232
			c0.114-0.102,0.214-0.236,0.283-0.395c0.067-0.156,0.105-0.342,0.105-0.546V62.344c0-0.083-0.017-0.164-0.069-0.237
			C151.467,62.033,151.39,61.974,151.281,61.926z M159.076,61.895c-0.132-0.044-0.308-0.074-0.53-0.102
			c-0.212-0.022-0.497-0.043-0.837-0.043c-0.345,0-0.606,0.021-0.829,0.043c-0.228,0.029-0.401,0.059-0.537,0.102
			c-0.141,0.05-0.236,0.108-0.296,0.17c-0.045,0.08-0.086,0.159-0.086,0.243v16.125c0,0.086,0.041,0.165,0.086,0.236
			c0.06,0.077,0.155,0.134,0.287,0.175c0.14,0.047,0.312,0.078,0.544,0.107c0.226,0.028,0.487,0.037,0.832,0.037
			c0.34,0,0.625-0.009,0.837-0.037c0.222-0.029,0.398-0.06,0.53-0.107c0.137-0.041,0.227-0.098,0.29-0.175
			c0.052-0.071,0.079-0.151,0.079-0.236V62.307c0-0.084-0.027-0.163-0.079-0.243C159.303,62.003,159.214,61.945,159.076,61.895z
			 M180.506,79.126c-0.095-0.09-0.229-0.166-0.391-0.224c-0.181-0.05-0.409-0.141-0.693-0.27c-0.286-0.123-0.635-0.3-1.064-0.55
			c-0.416-0.243-0.899-0.611-1.443-1.087c0.352-0.359,0.677-0.772,0.955-1.252c0.286-0.474,0.529-1,0.713-1.571
			c0.201-0.571,0.346-1.198,0.451-1.872c0.09-0.665,0.149-1.386,0.149-2.155c0-1.478-0.182-2.755-0.527-3.833
			c-0.346-1.082-0.86-1.982-1.526-2.697c-0.673-0.707-1.509-1.235-2.476-1.572c-0.986-0.344-2.108-0.519-3.384-0.519
			c-1.354,0-2.534,0.213-3.56,0.62c-1.023,0.426-1.88,1.014-2.579,1.777c-0.697,0.771-1.219,1.703-1.565,2.813
			c-0.358,1.106-0.536,2.347-0.536,3.73c0,1.522,0.167,2.835,0.497,3.939c0.331,1.102,0.831,2.017,1.481,2.723
			c0.662,0.718,1.478,1.244,2.477,1.578c0.984,0.339,2.141,0.509,3.465,0.509c0.696,0,1.348-0.065,1.918-0.203
			c0.572-0.138,1.076-0.299,1.474-0.484c0.487,0.551,1.009,1.045,1.578,1.471c0.559,0.425,1.113,0.787,1.655,1.08
			c0.546,0.293,1.059,0.518,1.528,0.686c0.475,0.156,0.856,0.233,1.139,0.233c0.074,0,0.135-0.01,0.204-0.048
			c0.057-0.023,0.117-0.093,0.165-0.201c0.052-0.108,0.095-0.254,0.128-0.447c0.026-0.193,0.041-0.455,0.041-0.771
			c0-0.396-0.015-0.701-0.058-0.926C180.669,79.374,180.6,79.217,180.506,79.126z M175.322,72.666
			c-0.141,0.732-0.396,1.37-0.744,1.914c-0.362,0.547-0.815,0.974-1.39,1.294c-0.563,0.317-1.273,0.473-2.121,0.473
			c-0.862,0-1.561-0.137-2.127-0.415c-0.569-0.276-1.011-0.683-1.349-1.211c-0.331-0.527-0.563-1.157-0.71-1.913
			c-0.146-0.745-0.211-1.59-0.211-2.53c0-0.79,0.065-1.545,0.211-2.262c0.15-0.716,0.398-1.341,0.754-1.886
			c0.35-0.532,0.807-0.963,1.381-1.279c0.57-0.315,1.286-0.465,2.13-0.465c0.856,0,1.557,0.133,2.115,0.419
			c0.562,0.289,1.013,0.694,1.35,1.212c0.339,0.526,0.58,1.153,0.718,1.882c0.132,0.73,0.207,1.539,0.207,2.429
			C175.536,71.159,175.461,71.934,175.322,72.666z M196.582,61.895c-0.126-0.044-0.304-0.074-0.517-0.101
			c-0.212-0.024-0.488-0.041-0.817-0.041c-0.342,0-0.61,0.017-0.846,0.041c-0.219,0.027-0.387,0.057-0.531,0.101
			c-0.132,0.05-0.228,0.108-0.272,0.169c-0.05,0.08-0.075,0.159-0.075,0.241v10.281c0,0.602-0.083,1.138-0.25,1.607
			c-0.161,0.468-0.395,0.87-0.69,1.191c-0.301,0.312-0.671,0.558-1.092,0.728c-0.438,0.165-0.924,0.249-1.472,0.249
			c-0.531,0-1.013-0.079-1.453-0.243c-0.43-0.159-0.807-0.406-1.112-0.733c-0.316-0.321-0.555-0.742-0.714-1.227
			c-0.176-0.502-0.266-1.094-0.266-1.764V62.305c0-0.082-0.025-0.161-0.081-0.241c-0.05-0.061-0.154-0.119-0.278-0.169
			c-0.135-0.044-0.309-0.074-0.526-0.101c-0.23-0.024-0.502-0.041-0.839-0.041c-0.345,0-0.627,0.017-0.842,0.041
			c-0.214,0.027-0.401,0.057-0.526,0.101c-0.141,0.05-0.232,0.108-0.286,0.169c-0.058,0.08-0.083,0.159-0.083,0.241v10.387
			c0,1.091,0.159,2.046,0.468,2.862c0.312,0.809,0.765,1.49,1.339,2.04c0.604,0.542,1.321,0.943,2.176,1.214
			c0.849,0.27,1.808,0.406,2.884,0.406c1.143,0,2.156-0.153,3.03-0.45c0.871-0.304,1.618-0.737,2.208-1.309
			c0.608-0.565,1.058-1.268,1.365-2.092c0.307-0.827,0.461-1.77,0.461-2.813V62.305c0-0.082-0.028-0.161-0.08-0.241
			C196.814,62.003,196.72,61.945,196.582,61.895z M211.3,76.496c-0.049-0.105-0.103-0.182-0.166-0.231
			c-0.066-0.054-0.138-0.073-0.214-0.073h-6.146V71.37h5.156c0.075,0,0.156-0.019,0.213-0.064c0.07-0.041,0.118-0.112,0.168-0.215
			c0.041-0.098,0.079-0.236,0.095-0.404c0.028-0.167,0.035-0.378,0.035-0.63c0-0.251-0.007-0.457-0.035-0.631
			c-0.016-0.169-0.054-0.306-0.095-0.407c-0.05-0.1-0.098-0.174-0.168-0.227c-0.058-0.045-0.138-0.07-0.213-0.07h-5.156v-4.169
			h6.093c0.076,0,0.155-0.024,0.21-0.074c0.063-0.049,0.105-0.128,0.159-0.229c0.036-0.113,0.077-0.248,0.1-0.419
			c0.015-0.167,0.023-0.377,0.023-0.632c0-0.254-0.008-0.472-0.023-0.648c-0.023-0.174-0.063-0.312-0.1-0.42
			c-0.054-0.109-0.096-0.185-0.159-0.236c-0.055-0.044-0.134-0.061-0.21-0.061h-8.523c-0.286,0-0.526,0.081-0.73,0.253
			c-0.188,0.175-0.29,0.448-0.29,0.839v14.888c0,0.384,0.101,0.666,0.29,0.836c0.204,0.175,0.444,0.258,0.73,0.258h8.576
			c0.076,0,0.148-0.023,0.214-0.073c0.064-0.047,0.117-0.122,0.166-0.227c0.037-0.107,0.073-0.236,0.096-0.421
			c0.014-0.167,0.029-0.386,0.029-0.636c0-0.255-0.016-0.465-0.029-0.641C211.373,76.737,211.337,76.598,211.3,76.496z
			 M243.342,61.792c-0.209-0.033-0.513-0.04-0.902-0.04c-0.41,0-0.733,0.007-0.966,0.04c-0.22,0.019-0.401,0.054-0.517,0.113
			c-0.13,0.059-0.214,0.133-0.253,0.239c-0.044,0.098-0.082,0.217-0.113,0.362l-2.989,13.036h-0.02l-3.22-12.984
			c-0.036-0.181-0.085-0.315-0.144-0.423c-0.059-0.105-0.164-0.187-0.284-0.242c-0.145-0.06-0.345-0.096-0.593-0.116
			c-0.252-0.017-0.575-0.024-1.008-0.024c-0.397,0-0.709,0.007-0.95,0.04c-0.235,0.019-0.413,0.054-0.554,0.113
			c-0.14,0.059-0.236,0.133-0.296,0.239c-0.053,0.114-0.104,0.245-0.136,0.413l-3.105,12.984h-0.015l-2.994-13.08
			c-0.017-0.161-0.061-0.296-0.104-0.388c-0.05-0.089-0.131-0.165-0.251-0.205c-0.115-0.054-0.302-0.077-0.547-0.094
			c-0.244-0.02-0.57-0.022-0.98-0.022c-0.458,0-0.79,0.007-1.055,0.04c-0.248,0.019-0.425,0.077-0.534,0.171
			c-0.111,0.099-0.161,0.239-0.151,0.413c0.009,0.181,0.044,0.434,0.13,0.745l3.874,14.906c0.059,0.208,0.118,0.375,0.204,0.508
			c0.077,0.123,0.199,0.225,0.375,0.288c0.184,0.068,0.423,0.105,0.717,0.132c0.307,0.023,0.718,0.031,1.223,0.031
			c0.484,0,0.868-0.008,1.167-0.031c0.303-0.028,0.528-0.065,0.695-0.138c0.171-0.072,0.3-0.171,0.384-0.299
			c0.076-0.126,0.141-0.286,0.168-0.491l2.594-10.821h0.031l2.729,10.821c0.033,0.208,0.098,0.375,0.177,0.508
			c0.081,0.123,0.214,0.225,0.388,0.288c0.166,0.068,0.407,0.105,0.711,0.132c0.301,0.023,0.701,0.031,1.213,0.031
			c0.44,0,0.808-0.008,1.101-0.031c0.291-0.028,0.534-0.065,0.716-0.132c0.179-0.063,0.315-0.165,0.409-0.288
			c0.093-0.133,0.167-0.3,0.218-0.508l3.911-14.87c0.079-0.321,0.131-0.578,0.145-0.767c0.014-0.187-0.03-0.327-0.128-0.426
			C243.715,61.869,243.554,61.811,243.342,61.792z M255.773,62.475c-0.06-0.159-0.125-0.294-0.198-0.393
			c-0.078-0.097-0.193-0.175-0.368-0.213c-0.176-0.056-0.413-0.077-0.725-0.094c-0.301-0.018-0.715-0.022-1.231-0.022
			c-0.445,0-0.811,0.004-1.081,0.022c-0.274,0.017-0.491,0.038-0.634,0.094c-0.159,0.038-0.265,0.116-0.344,0.205
			c-0.068,0.09-0.135,0.213-0.179,0.365l-5.266,15.155c-0.096,0.3-0.169,0.545-0.189,0.738c-0.035,0.18,0,0.322,0.092,0.429
			c0.081,0.1,0.237,0.16,0.472,0.192c0.225,0.026,0.544,0.034,0.945,0.034c0.378,0,0.687-0.006,0.924-0.026
			c0.227-0.019,0.406-0.044,0.529-0.1c0.135-0.048,0.229-0.116,0.286-0.195c0.049-0.086,0.105-0.186,0.134-0.312l1.082-3.334h6.4
			l1.151,3.423c0.029,0.121,0.082,0.212,0.129,0.285c0.055,0.066,0.145,0.124,0.276,0.164c0.138,0.037,0.321,0.065,0.57,0.077
			c0.261,0.016,0.599,0.018,1.047,0.018c0.431,0,0.778-0.008,1.02-0.031c0.24-0.028,0.418-0.076,0.512-0.172
			c0.104-0.091,0.132-0.231,0.113-0.413c-0.027-0.191-0.094-0.443-0.207-0.757L255.773,62.475z M250.784,72.345l2.417-7.251h0.012
			l2.411,7.251H250.784z M275.903,61.964c-0.101-0.095-0.295-0.153-0.571-0.171c-0.28-0.033-0.661-0.04-1.164-0.04
			c-0.375,0-0.686,0.007-0.904,0.024c-0.24,0.017-0.41,0.056-0.548,0.114c-0.138,0.047-0.229,0.116-0.298,0.195
			c-0.072,0.082-0.119,0.197-0.166,0.339l-1.869,4.169c-0.174,0.409-0.334,0.83-0.515,1.287c-0.18,0.441-0.345,0.903-0.509,1.377
			h-0.021c-0.192-0.487-0.38-0.961-0.552-1.406c-0.19-0.449-0.365-0.877-0.553-1.279l-1.895-4.201
			c-0.062-0.123-0.124-0.224-0.193-0.307c-0.061-0.075-0.162-0.138-0.307-0.189c-0.142-0.043-0.335-0.082-0.574-0.099
			c-0.244-0.017-0.568-0.024-0.969-0.024c-0.487,0-0.855,0.007-1.131,0.04c-0.276,0.019-0.462,0.077-0.567,0.171
			c-0.094,0.082-0.12,0.224-0.082,0.405c0.049,0.179,0.161,0.433,0.328,0.753l4.66,9.313v5.998c0,0.091,0.033,0.171,0.086,0.238
			c0.057,0.073,0.142,0.132,0.288,0.174c0.137,0.047,0.302,0.077,0.535,0.107c0.218,0.028,0.49,0.036,0.839,0.036
			c0.33,0,0.608-0.008,0.831-0.036c0.225-0.03,0.408-0.06,0.537-0.107c0.138-0.041,0.224-0.1,0.291-0.174
			c0.051-0.067,0.076-0.147,0.076-0.238v-5.998l4.674-9.313c0.157-0.312,0.26-0.564,0.319-0.749
			C276.027,62.188,275.997,62.046,275.903,61.964z M183,40.112c0.131,0.116,0.333,0.121,0.477,0.02
			c0.632-0.504,1.181-1.168,1.648-1.891h16.238c0.236,0,0.421-0.195,0.393-0.433c-0.007-0.116-0.067-0.225-0.142-0.295
			c0,0-0.007-0.01-0.011-0.01l-1.288-1.211c-0.046-0.036-0.088-0.059-0.153-0.059c-0.095-0.004-0.189,0.04-0.254,0.116l-0.404,0.469
			h-13.576c0.321-0.641,0.6-1.291,0.833-1.898c0.08-0.19-0.019-0.41-0.22-0.485l-0.628-0.259c-0.183-0.075-0.416,0.024-0.484,0.219
			c-0.676,1.752-1.339,3.386-2.789,5.174c-0.052,0.067-0.038,0.175,0.027,0.238C182.777,39.912,182.882,40.014,183,40.112z
			 M202.209,48.435c-0.008-0.115-0.057-0.214-0.135-0.292l-0.008-0.002l-1.194-1.16c-0.046-0.034-0.09-0.058-0.147-0.058
			c-0.095-0.006-0.168,0.036-0.237,0.107v0.005l-0.312,0.362h-1.117v-3.83h-1.431v3.83h-2.618v-3.83h-1.421v3.83h-2.621v-3.83
			h-1.418v3.83h-2.624v-3.83h-1.43v3.83h-2.547c-0.207,0-0.385,0.16-0.385,0.378v0.68c0,0.206,0.178,0.392,0.385,0.392h18.9
			C202.067,48.847,202.235,48.661,202.209,48.435z M201.157,41.698c-0.044-0.032-0.086-0.05-0.141-0.059
			c-0.091-0.001-0.179,0.039-0.235,0.115l-0.305,0.353h-1.415v-2.62c0-0.21-0.166-0.389-0.374-0.389h-0.686
			c-0.207,0-0.371,0.179-0.371,0.389v2.62h-2.619V39.49c0-0.213-0.159-0.386-0.369-0.386h-0.683c-0.203,0-0.368,0.173-0.368,0.386
			v2.617h-2.622v-2.61c0-0.206-0.17-0.376-0.376-0.376h-0.678c-0.209,0-0.363,0.17-0.363,0.376v2.61h-2.624v-2.539
			c0-0.215-0.173-0.383-0.386-0.383h-0.656c-0.218,0-0.389,0.168-0.389,0.383v2.539h-2.793c-0.22,0-0.388,0.162-0.388,0.385
			l20.041,0.375L201.157,41.698z M183.721,54.138c0.321-0.357,1.608-2.195,2.26-3.906c0.052-0.147-0.024-0.316-0.17-0.374
			l-0.583-0.22c-0.086-0.029-0.174,0-0.214,0.075c-0.457,0.871-1.029,1.699-1.605,2.492c-0.277,0.359-0.583,0.774-0.874,1.126
			c-0.134,0.163-0.122,0.3,0.04,0.436l0.65,0.447C183.386,54.318,183.598,54.285,183.721,54.138z M189.635,49.839l-0.671,0.116
			c-0.098,0.022-0.167,0.116-0.153,0.217c0.141,0.581,0.39,1.694,0.744,3.791c0.036,0.199,0.104,0.356,0.309,0.32l0.813-0.146
			c0.23-0.057,0.343-0.214,0.308-0.386c0,0-0.133-1.238-1.041-3.738C189.881,49.899,189.751,49.821,189.635,49.839z M194.387,49.874
			l-0.606,0.228c-0.076,0.052-0.121,0.151-0.079,0.236c0.278,0.597,0.582,1.202,0.823,1.813c0.194,0.503,0.519,1.361,0.723,1.853
			c0.004,0.015,0.006,0.021,0.014,0.036c0.08,0.201,0.206,0.306,0.391,0.234l0.762-0.298c0.175-0.082,0.259-0.287,0.198-0.465
			c-0.165-0.415-1.368-2.814-1.869-3.524C194.657,49.874,194.514,49.83,194.387,49.874z M202.139,53.747
			c0.146-0.119,0.174-0.328,0.081-0.477c-0.269-0.45-1.491-2.255-2.673-3.446c-0.108-0.084-0.248-0.098-0.372-0.037l-0.543,0.36
			c-0.091,0.07-0.091,0.182-0.028,0.27c0.259,0.377,1.026,1.461,1.412,2.101l0.956,1.613c0.121,0.18,0.279,0.268,0.461,0.148
			L202.139,53.747z M272.488,46.644c1.03-0.498,1.963-1.119,2.877-1.821c0.156-0.128,0.193-0.37,0.072-0.536l-0.373-0.486
			c-0.12-0.152-0.301-0.13-0.468-0.001c-0.773,0.595-1.546,1.158-2.365,1.647l-0.795-3.549c0.896-0.277,1.784-0.597,2.742-0.961
			c0.211-0.096,0.262-0.321,0.19-0.522l-0.29-0.659c-0.068-0.2-0.196-0.221-0.414-0.135c-2.667,1.044-5.506,1.879-8.319,2.434
			c-0.099,0.026-0.158,0.125-0.143,0.224c0.036,0.184,0.085,0.379,0.109,0.571l1.102,1.041v8.917c0,0.82,0.649,1.201,1.318,1.127
			l1.86-0.133c0.276-0.05,0.397-0.126,0.439-0.384l0.056-0.51c0.036-0.12-0.076-0.235-0.193-0.219h-1.785
			c-0.101,0.004-0.184-0.084-0.184-0.189l-0.004-7.186l3.968,3.747c0.966,2.161,2.149,3.373,3.027,4.329
			c0.206,0.22,0.319,0.305,0.519,0.162l0.467-0.399c0.095-0.09,0.136-0.164,0.042-0.263l-1.218-1.536
			C273.631,49.79,272.838,48.091,272.488,46.644z M267.919,42.768c0.745-0.135,1.449-0.294,2.136-0.477l0.889,4.003
			c0.041,0.164,0.09,0.302,0.133,0.459L267.919,42.768z M264.698,39.778c0.104,0.102,0.208,0.201,0.311,0.306
			c0.148,0.122,0.35,0.136,0.488,0.031c0.683-0.519,1.228-1.139,1.707-1.815h8.17c0.216,0,0.369-0.171,0.344-0.371
			c-0.011-0.102-0.051-0.197-0.124-0.258l-0.004-0.009l-1.126-1.045c-0.033-0.033-0.079-0.052-0.129-0.054
			c-0.08,0-0.155,0.037-0.224,0.099l-0.287,0.335h-5.831c0.366-0.687,0.685-1.411,0.982-2.119c0.081-0.189-0.018-0.41-0.199-0.496
			l-0.633-0.268c-0.179-0.072-0.411,0.01-0.491,0.203c-0.823,1.912-1.404,3.487-2.964,5.211
			C264.619,39.596,264.631,39.706,264.698,39.778z M264.408,42.425l-0.336,0.371C264.277,42.795,264.431,42.634,264.408,42.425z
			 M263.803,52.812V42.795h-1.501v9.638c0,0.103-0.102,0.201-0.198,0.182l-1.785,0.01c-0.119-0.011-0.222,0.102-0.192,0.214
			l0.061,0.588c0.044,0.259,0.155,0.335,0.44,0.38l1.858,0.129C263.147,54.011,263.803,53.578,263.803,52.812z M255.942,53.802
			c0.223,0.093,0.331,0.125,0.498-0.061c2.715-3.061,3.162-7.018,3.278-10.945l4.69-0.371c-0.017-0.103-0.05-0.192-0.127-0.259
			h-0.005l-1.117-1.048c-0.033-0.033-0.082-0.054-0.13-0.054c-0.077-0.007-0.156,0.036-0.222,0.098l-0.295,0.339h-2.76
			c0.012-0.96,0.02-1.907,0.055-2.834h4.551c0.195,0,0.349-0.163,0.333-0.367c-0.003-0.099-0.059-0.196-0.124-0.262h-0.003
			l-1.124-1.05c-0.026-0.034-0.08-0.053-0.133-0.053c-0.085-0.006-0.162,0.038-0.208,0.099l-0.291,0.334h-1.938v-2.884
			c0-0.223-0.18-0.398-0.394-0.398h-0.686c-0.21,0-0.388,0.175-0.388,0.398v2.884h-3.025c-0.193,0-0.35,0.159-0.35,0.355v0.595
			c0,0.197,0.158,0.349,0.35,0.349h1.983c-0.012,0.585-0.032,1.522-0.047,2.177c-0.01,0.388-0.013,0.679-0.013,0.745
			c-0.055,4.129-0.251,8.527-2.818,11.788c-0.08,0.097-0.028,0.239,0.081,0.292C255.691,53.714,255.808,53.763,255.942,53.802z
			 M208.846,38.697h16.226c0.237,0,0.413-0.19,0.39-0.43c-0.007-0.116-0.067-0.22-0.149-0.298l-0.003-0.008l-1.281-1.205
			c-0.048-0.038-0.101-0.06-0.156-0.06c-0.099-0.003-0.19,0.04-0.255,0.116l-0.369,0.429h-14.402c-0.22,0-0.393,0.179-0.393,0.392
			v0.673C208.453,38.522,208.626,38.697,208.846,38.697z M207.43,52.501h19.082c0.236,0,0.414-0.195,0.388-0.436
			c-0.006-0.115-0.063-0.215-0.14-0.294h-0.003l-1.296-1.223c-0.044-0.026-0.087-0.054-0.156-0.054
			c-0.087-0.004-0.184,0.043-0.25,0.12l-0.384,0.427H207.43c-0.229,0-0.407,0.176-0.407,0.386v0.677
			C207.023,52.325,207.202,52.501,207.43,52.501z M231.893,53.369c1.866-0.054,3.426-0.79,4.783-1.867
			c0.841,0.961,2.427,2.18,5.174,2.18h8.646c0.181,0,0.335-0.128,0.392-0.29l0.375-0.949c0.025-0.119-0.059-0.24-0.181-0.24h-9.231
			c-2.047,0-3.372-0.932-4.093-1.66c0.192-0.204,0.395-0.404,0.582-0.617l9.683-10.559h1c0.231,0,0.4-0.19,0.386-0.42
			c-0.009-0.121-0.067-0.218-0.145-0.296l-0.007-0.005l-1.265-1.188c-0.041-0.034-0.094-0.058-0.152-0.058
			c-0.094-0.004-0.174,0.04-0.251,0.112l-0.352,0.401h-5.335v-3.427c0-0.23-0.184-0.403-0.4-0.403h-0.684
			c-0.223,0-0.394,0.173-0.394,0.403v3.427h-7.427c-0.215,0-0.389,0.185-0.389,0.406v0.667c0,0.211,0.174,0.381,0.389,0.381h12.963
			l-8.611,9.475c-1.484,1.628-3.03,3.066-5.324,3.425c-0.17,0.025-0.3,0.176-0.312,0.347v0.585
			C231.725,53.295,231.794,53.364,231.893,53.369z"/>
	</g>
</g>
</svg>
