<svg height="512pt" viewBox="0 0 512.00033 512" width="512pt" xmlns="http://www.w3.org/2000/svg"><path d="m410.921875 313.199219c-17.585937-17.585938-46.046875-17.585938-63.636719 0l-28.925781 28.925781c-13.320313 13.324219-34.882813 13.324219-48.207031 0l-100.277344-100.273438c-13.292969-13.292968-13.292969-34.921874 0-48.210937l28.925781-28.925781c17.585938-17.585938 17.589844-46.050782 0-63.636719l-63.636719-63.636719c-17.507812-17.511718-45.972656-17.546875-63.527343-.113281l-21.09375 20.304687c-.40625.332032-.796875.683594-1.175781 1.066407-68.753907 69.351562-62.222657 171.019531-1.882813 231.363281l174.457031 174.390625c31.632813 31.632813 73.183594 47.449219 114.738282 47.449219 41.554687 0 83.105468-15.816406 114.738281-47.449219.0625-.066406.125-.128906.1875-.191406l23.054687-23.890625c17.488282-17.59375 17.449219-45.984375-.101562-63.535156zm-21.210937 21.210937 63.636718 63.640625c5.863282 5.859375 5.863282 15.347657 0 21.210938-.0625.0625-.125.125-.1875.1875l-10.230468 10.605469-85.035157-85.039063 10.605469-10.605469c5.859375-5.859375 15.347656-5.859375 21.210938 0zm-296.972657-275.757812c5.847657-5.847656 15.363281-5.847656 21.210938 0l63.636719 63.636718c5.863281 5.863282 5.863281 15.347657 0 21.210938l-10.648438 10.652344-85.417969-84.695313 11.015625-10.601562c.066406-.070313.136719-.136719.203125-.203125zm150.414063 384.585937-174.457032-174.390625c-48.65625-48.660156-51.390624-126.109375-8.226562-178.019531l85.363281 84.640625c-22.105469 25.144531-21.171875 63.59375 2.832031 87.59375l100.277344 100.277344c24.039063 24.039062 62.410156 25.046875 87.636719 2.789062l85.003906 85c-51.914062 43.519532-129.640625 40.898438-178.429687-7.890625zm0 0"/><path d="m317.007812 0c-8.28125 0-15 6.714844-15 15 0 8.28125 6.71875 15 15 15 90.976563 0 164.992188 74.015625 164.992188 164.992188 0 8.285156 6.71875 15 15 15 8.285156 0 15-6.714844 15-15 0-107.519532-87.472656-194.992188-194.992188-194.992188zm0 0"/><path d="m317.007812 89.996094c57.894532 0 104.996094 47.101562 104.996094 104.996094 0 8.285156 6.714844 15 15 15s15-6.714844 15-15c0-74.4375-60.558594-134.996094-134.996094-134.996094-8.28125 0-15 6.71875-15 15 0 8.285156 6.714844 15 15 15zm0 0"/><path d="m317.007812 149.992188c24.8125 0 45 20.1875 45 45 0 8.285156 6.714844 15 15 15 8.28125 0 14.996094-6.714844 14.996094-15 0-41.355469-33.640625-74.996094-74.996094-74.996094-8.28125 0-15 6.714844-15 15 0 8.28125 6.714844 14.996094 15 14.996094zm0 0"/></svg>